# AST/ASF file generated using VICON BodyLanguage
# -----------------------------------------------
:version 1.10
:name VICON
:units
  mass 1.0
  length 0.45
  angle deg
:documentation
   .ast/.asf automatically generated from VICON data using
   VICON BodyBuilder and BodyLanguage model FoxedUp or BRILLIANT.MOD
:root
   order TX TY TZ RX RY RZ
   axis XYZ
   position 0 0 0  
   orientation 0 0 0 
:bonedata
  begin
     id 1 
     name lhipjoint
     direction 0.596438 -0.722117 0.35044 
     length 2.43043 
     axis 0 0 0  XYZ
  end
  begin
     id 2 
     name lfemur
     direction 0.34202 -0.939693 0  
     length 7.0339  
     axis 0 0 20  XYZ
    dof rx ry rz
    limits (-160.0 20.0)
           (-70.0 70.0)
           (-60.0 70.0)
  end
  begin
     id 3 
     name ltibia
     direction 0.34202 -0.939693 0   
     length 7.56602   
     axis 0 0 20   XYZ
    dof rx
    limits (-10.0 170.0)
  end
  begin
     id 4 
     name lfoot
     direction 0.0985677 -0.270812 0.957572   
     length 1.85172   
     axis -90 7.62852e-016 20   XYZ
    dof rx rz
    limits (-45.0 90.0)
           (-70.0 20.0)
  end
  begin
     id 5 
     name ltoes
     direction 1.53534e-011 -4.21843e-011 1   
     length 0.929904   
     axis -90 7.62852e-016 20   XYZ
    dof rx
    limits (-90.0 20.0)
  end
  begin
     id 6 
     name rhipjoint
     direction -0.585088 -0.729594 0.354068   
     length 2.40552  
     axis 0 0 0  XYZ 
  end
  begin
     id 7 
     name rfemur
     direction -0.34202 -0.939693 0   
     length 7.12573   
     axis 0 0 -20   XYZ
    dof rx ry rz
    limits (-160.0 20.0)
           (-70.0 70.0)
           (-70.0 60.0)
  end
  begin
     id 8 
     name rtibia
     direction -0.34202 -0.939693 0   
     length 7.35777   
     axis 0 0 -20   XYZ
    dof rx
    limits (-10.0 170.0)
 end
 begin
     id 9 
     name rfoot
     direction -0.120907 -0.33219 0.935431   
     length 2.0994  
     axis -90 -7.62852e-016 -20   XYZ
    dof rx rz
    limits (-45.0 90.0)
           (-20.0 70.0)
  end
  begin
     id 10 
     name rtoes
     direction -1.53577e-011 -4.21787e-011 1   
     length 1.04244   
     axis -90 -7.62852e-016 -20   XYZ
    dof rx
    limits (-90.0 20.0)
  end
  begin
     id 11 
     name lowerback
     direction 0.00268363 0.993603 -0.112896   
     length 2.15839   
     axis 0 0 0   XYZ
    dof rx ry rz
    limits (-20.0 45.0)
           (-30.0 30.0)
           (-30.0 30.0)
  end
  begin
     id 12 
     name upperback
     direction 0.0272563 0.999411 -0.0208618   
     length 2.16443   
     axis 0 0 0   XYZ
    dof rx ry rz
    limits (-20.0 45.0)
           (-30.0 30.0)
           (-30.0 30.0)
  end
  begin
     id 13 
     name thorax
     direction 0.0254655 0.999174 0.0316806   
     length 2.19003   
     axis 0 0 0   XYZ
    dof rx ry rz
    limits (-20.0 45.0)
           (-30.0 30.0)
           (-30.0 30.0)
  end
  begin
     id 14 
     name lowerneck
     direction -0.0102178 0.988048 0.15381   
     length 1.61507   
     axis 0 0 0   XYZ
    dof rx ry rz
    limits (-20.0 45.0)
           (-30.0 30.0)
           (-30.0 30.0)
  end
  begin
     id 15 
     name upperneck
     direction -0.0061965 0.994088 -0.108398   
     length 1.64042   
     axis 0 0 0   XYZ
    dof rx ry rz
    limits (-20.0 45.0)
           (-30.0 30.0)
           (-30.0 30.0)
  end
  begin
     id 16
     name head
     direction -0.00151929 0.998591 -0.0530385  
     length 1.64343  
     axis 0 0 0   XYZ
    dof rx ry rz
    limits (-20.0 45.0)
           (-30.0 30.0)
           (-30.0 30.0)
  end
  begin
     id 17 
     name lclavicle
     direction 0.948974 0.284245 -0.136574  
     length 3.3483  
     axis 0 0 0   XYZ
    dof ry rz
    limits (-20.0 10.0)
           (0.0 20.0)
  end
  begin
     id 18 
     name lhumerus
     direction 1 -4.48961e-011 1.68576e-027   
     length 4.93485   
     axis -180 -30 -90   XYZ
    dof rx ry rz
    limits (-60.0 90.0)
           (-90.0 90.0)
           (-90.0 90.0)
  end
  begin
     id 19
     name lradius
     direction 1 -4.48965e-011 -2.46405e-027   
     length 3.41719   
     axis -180 -30 -90   XYZ
    dof rx
    limits (-10.0 170.0)
  end
  begin
     id 20
     name lwrist
     direction 1 -4.48968e-011 -8.00486e-028   
     length 1.7086   
     axis 3.27501e-015 90 90   XYZ
    dof ry
    limits (-180.0 0.0)
 end
  begin
     id 21 
     name lhand
     direction 1 -4.48977e-011 -1.60161e-027   
     length 0.6241   
     axis 1.02148e-015 90 90   XYZ
    dof rx rz
    limits (-90.0 90.0)
           (-45.0 45.0)
  end
  begin
     id 22 
     name lfingers
     direction 1 -4.49049e-011 -3.21275e-027   
     length 0.503166   
     axis 2.04295e-015 90 90   XYZ
    dof rx
    limits (0.0 90.0)
  end
  begin
     id 23
     name lthumb
     direction 0.707107 -6.34975e-011 0.707107   
     length 0.722448   
     axis -90 45 -1.62303e-014   XYZ
    dof rx rz
    limits (-45.0 45.0)
           (-45.0 45.0)
  end
  begin
     id 24 
     name rclavicle
     direction -0.904485 0.355099 -0.236246   
     length 3.18329  
     axis 0 0 0   XYZ 
    dof ry rz
    limits (-10.0 20.0)
           (-20.0 0.0)
  end
  begin
     id 25 
     name rhumerus
     direction -1 -4.48953e-011 1.32816e-027  
     length 5.22034   
     axis -180 30 90   XYZ
    dof rx ry rz
    limits (-90.0 60.0)
           (-90.0 90.0)
           (-90.0 90.0)
  end
  begin
     id 26 
     name rradius
     direction -1 -4.48965e-011 -3.93727e-027   
     length 3.41809   
     axis -180 30 90   XYZ
    dof rx
    limits (-10.0 170.0)
  end
  begin
     id 27 
     name rwrist
     direction -1 -4.48962e-011 -8.003e-028   
     length 1.70904   
     axis 3.27501e-015 -90 -90   XYZ
    dof ry
    limits (-180.0 0.0)
  end
  begin
     id 28
     name rhand
     direction -1 -4.49008e-011 -1.60365e-027   
     length 0.77534   
     axis 1.02148e-015 -90 -90   XYZ
    dof rx rz
    limits (-90.0 90.0)
           (-45.0 45.0)
  end
  begin
     id 29
     name rfingers
     direction -1 -4.49001e-011 -3.2064e-027   
     length 0.625099   
     axis 2.04295e-015 -90 -90   XYZ
    dof rx
    limits (0.0 90.0)
  end
  begin
     id 30
     name rthumb
     direction -0.707107 -6.34989e-011 0.707107   
     length 0.897521   
     axis -90 -45 1.62303e-014   XYZ
    dof rx rz
    limits (-45.0 45.0)
           (-45.0 45.0)
  end
:hierarchy
  begin
    root lhipjoint rhipjoint lowerback
    lhipjoint lfemur
    lfemur ltibia
    ltibia lfoot
    lfoot ltoes
    rhipjoint rfemur
    rfemur rtibia
    rtibia rfoot
    rfoot rtoes
    lowerback upperback
    upperback thorax
    thorax lowerneck lclavicle rclavicle
    lowerneck upperneck
    upperneck head
    lclavicle lhumerus
    lhumerus lradius
    lradius lwrist
    lwrist lhand lthumb
    lhand lfingers
    rclavicle rhumerus
    rhumerus rradius
    rradius rwrist
    rwrist rhand rthumb
    rhand rfingers
  end

#!OML:ASF \\sashay\E\Suitcase\Project 1\Capture day 1\Session 1\Male1.ASF
:FULLY-SPECIFIED
:DEGREES
762
root 0.30895 17.2031 23.1846 2.97659 4.31362 -1.75918
lowerback 6.31646 -1.56887 -0.730995
upperback 0.315568 -1.98962 4.64974
thorax -3.02669 -0.953008 5.42024
lowerneck -13.7298 0.583048 -2.20997
upperneck 31.1915 3.02813 -4.77736
head 12.7212 0.461919 -1.00372
rclavicle 2.03754e-014 -7.95139e-016
rhumerus -45.7018 -26.147 -57.714
rradius 16.9779
rwrist -2.50891
rhand -12.002 13.2742
rfingers 7.12502
rthumb 14.055 -16.2306
lclavicle 2.03754e-014 -7.95139e-016
lhumerus -39.1393 -1.27224 87.8648
lradius 34.0774
lwrist -9.15434
lhand 3.84119 43.2913
lfingers 7.12502
lthumb 29.2641 71.0094
rfemur -18.1553 2.20805 24.147
rtibia 20.9086
rfoot -6.23317 -12.1123
rtoes 18.6982
lfemur 2.49655 -3.75695 -17.7074
ltibia 39.8601
lfoot -12.9579 -8.41356
ltoes -53.6881
763
root 0.339855 17.195 23.3918 2.47549 5.12362 -1.45945
lowerback 4.05037 -1.81177 -0.507432
upperback 1.79941 -2.40076 4.47073
thorax -0.204054 -1.22452 4.99849
lowerneck -14.7406 0.457925 -2.13224
upperneck 30.6143 2.83775 -4.77636
head 12.6939 0.38642 -1.03517
rclavicle 1.78906e-014 4.77083e-015
rhumerus -43.7245 -27.9791 -58.1279
rradius 16.9493
rwrist -1.59727
rhand -12.0263 13.2771
rfingers 7.12502
rthumb 14.0317 -16.2293
lclavicle 1.78906e-014 4.77083e-015
lhumerus -37.3819 -1.41426 88.0056
lradius 34.2302
lwrist -10.0656
lhand 4.55627 43.5604
lfingers 7.12502
lthumb 29.9466 71.1573
rfemur -16.0479 -0.743742 23.8934
rtibia 19.5819
rfoot -6.47638 -9.98988
rtoes 18.5731
lfemur 2.03266 -4.41237 -18.2039
ltibia 42.5604
lfoot -13.8467 -7.05668
ltoes -54.4826
764
root 0.287421 17.1672 23.4301 2.26135 4.86852 -2.55951
lowerback 5.95958 -1.71805 0.14884
upperback 0.920777 -2.1541 4.82184
thorax -2.21011 -1.06355 5.08067
lowerneck -13.8334 0.547031 -2.09277
upperneck 30.7597 2.81851 -4.45784
head 12.5523 0.434136 -0.925261
rclavicle 1.98785e-016 -2.06736e-014
rhumerus -44.4174 -26.9852 -58.2863
rradius 17.5467
rwrist -2.1059
rhand -11.8902 12.9009
rfingers 7.12502
rthumb 14.1629 -16.5963
lclavicle 1.98785e-016 -2.06736e-014
lhumerus -38.5815 -1.82548 88.2222
lradius 34.4064
lwrist -9.96552
lhand 5.26831 43.4935
lfingers 7.12502
lthumb 30.6259 70.9656
rfemur -15.6812 1.72703 25.0937
rtibia 18.8115
rfoot -6.22912 -11.9305
rtoes 20.3516
lfemur 0.229906 -3.52991 -16.3512
ltibia 45.0901
lfoot -14.2998 -6.21882
ltoes -55.4526
765
root 0.233851 17.1445 23.4978 1.81283 4.49011 -4.32164
lowerback 6.4706 -1.60599 1.3243
upperback 1.19644 -1.90563 5.32865
thorax -2.25346 -0.947845 4.94106
lowerneck -14.2542 0.505803 -1.80938
upperneck 30.8369 2.71226 -4.49654
head 12.6738 0.406493 -1.00592
rclavicle -1.11319e-014 1.66979e-014
rhumerus -43.4802 -27.4475 -58.8519
rradius 17.5011
rwrist -1.84819
rhand -12.0608 13.7473
rfingers 7.12502
rthumb 13.9984 -15.7613
lclavicle -1.11319e-014 1.66979e-014
lhumerus -37.9949 -2.11759 88.2203
lradius 34.2092
lwrist -9.95542
lhand 5.0154 43.212
lfingers 7.12502
lthumb 30.3847 70.7289
rfemur -15.3845 4.33061 26.8813
rtibia 18.3653
rfoot -6.80878 -13.5932
rtoes 24.036
lfemur -1.1771 -2.57778 -13.8346
ltibia 47.5251
lfoot -15.0309 -4.82416
ltoes -56.201
766
root 0.232506 17.1286 23.6415 1.66123 4.84075 -3.77328
lowerback 5.99192 -1.60399 1.15619
upperback 1.36213 -1.95115 5.00797
thorax -1.81709 -0.974947 4.67921
lowerneck -14.44 0.268944 -2.39377
upperneck 31.1998 2.25075 -3.53711
head 12.8318 0.250116 -0.608115
rclavicle 6.06293e-015 -3.57812e-014
rhumerus -42.8305 -27.6721 -59.2573
rradius 17.3095
rwrist -2.19109
rhand -12.2766 14.0471
rfingers 7.12502
rthumb 13.7905 -15.4758
lclavicle 6.06293e-015 -3.57812e-014
lhumerus -37.8095 -2.19256 88.0784
lradius 34.4658
lwrist -10.5261
lhand 5.01235 43.2043
lfingers 7.12502
lthumb 30.3818 70.7218
rfemur -14.4818 3.09381 26.5438
rtibia 17.9947
rfoot -5.86043 -13.0792
rtoes 21.7657
lfemur -2.1538 -2.52365 -14.3541
ltibia 49.7048
lfoot -15.3506 -2.64057
ltoes -55.963
767
root 0.208992 17.1262 23.7458 1.33889 4.81851 -4.07369
lowerback 6.48294 -1.64638 0.963553
upperback 1.30722 -1.99027 5.2971
thorax -2.12792 -0.990355 5.11695
lowerneck -14.3729 0.29498 -2.53315
upperneck 31.1155 2.28308 -3.42535
head 12.7797 0.264837 -0.535196
rclavicle 9.34288e-015 2.62396e-014
rhumerus -41.89 -26.0998 -60.2768
rradius 17.4569
rwrist -3.86144
rhand -12.4268 14.1123
rfingers 7.12502
rthumb 13.6457 -15.4204
lclavicle 9.34288e-015 2.62396e-014
lhumerus -37.917 -1.70912 88.2279
lradius 34.5404
lwrist -10.8321
lhand 5.77663 43.0172
lfingers 7.12502
lthumb 31.1105 70.3976
rfemur -13.3175 2.76523 27.1226
rtibia 17.8352
rfoot -6.46932 -12.5912
rtoes 22.2239
lfemur -3.15476 -2.15789 -13.8111
ltibia 51.7276
lfoot -15.092 -2.33631
ltoes -55.0487
768
root 0.196808 17.1109 23.8673 0.810464 4.82017 -3.79241
lowerback 6.6125 -1.59891 0.660538
upperback 1.5241 -1.95672 5.1489
thorax -1.97343 -0.976094 5.12962
lowerneck -14.0581 0.158172 -2.75776
upperneck 31.004 2.00697 -3.05509
head 12.6559 0.17134 -0.394102
rclavicle 4.47266e-015 -1.98785e-014
rhumerus -41.0664 -25.0235 -61.4727
rradius 17.5395
rwrist -5.14667
rhand -13.0181 14.5418
rfingers 7.12502
rthumb 13.0757 -15.0283
lclavicle 4.47266e-015 -1.98785e-014
lhumerus -37.9526 -2.05226 88.3007
lradius 34.8551
lwrist -10.4762
lhand 5.14874 43.044
lfingers 7.12502
lthumb 30.5118 70.5373
rfemur -12.7064 3.06845 26.8571
rtibia 18.6518
rfoot -7.34206 -12.713
rtoes 23.6804
lfemur -3.64773 -1.91779 -14.0573
ltibia 53.4095
lfoot -14.4109 -1.92868
ltoes -54.294
769
root 0.175068 17.0929 23.9662 0.68935 4.7645 -4.524
lowerback 6.53061 -1.53907 1.14148
upperback 1.58454 -1.84401 5.41773
thorax -1.88096 -0.922695 5.12632
lowerneck -14.1224 0.186108 -2.67904
upperneck 31.0896 2.04398 -3.087
head 12.706 0.190815 -0.415075
rclavicle -1.64991e-014 3.65764e-014
rhumerus -40.6976 -25.6156 -61.226
rradius 17.9407
rwrist -4.65957
rhand -12.3707 14.3972
rfingers 7.12502
rthumb 13.6998 -15.1319
lclavicle -1.64991e-014 3.65764e-014
lhumerus -37.4786 -2.12175 88.4856
lradius 34.6384
lwrist -9.89466
lhand 3.5791 42.8117
lfingers 7.12502
lthumb 29.0138 70.5731
rfemur -12.6553 2.92408 27.8428
rtibia 18.8489
rfoot -7.22646 -12.6807
rtoes 21.0302
lfemur -5.00923 -1.41962 -12.9563
ltibia 55.3309
lfoot -13.7232 -3.64054
ltoes -52.7019
770
root 0.147302 17.1041 24.0715 0.420356 4.75552 -4.64969
lowerback 6.62254 -1.46451 1.09935
upperback 1.73807 -1.75204 5.37836
thorax -1.78069 -0.878792 5.10122
lowerneck -14.1642 0.0655854 -2.4205
upperneck 30.9716 1.82467 -3.18762
head 12.6668 0.11314 -0.52996
rclavicle 9.14409e-015 -3.18055e-015
rhumerus -40.4607 -26.2988 -61.326
rradius 18.223
rwrist -4.41858
rhand -12.3919 14.8281
rfingers 7.12502
rthumb 13.6794 -14.7024
lclavicle 9.14409e-015 -3.18055e-015
lhumerus -37.1806 -1.76664 88.1912
lradius 34.7925
lwrist -9.98946
lhand 3.95536 43.096
lfingers 7.12502
lthumb 29.3731 70.795
rfemur -11.5875 2.87144 28.1985
rtibia 18.8525
rfoot -8.09816 -12.5516
rtoes 22.367
lfemur -6.13952 -1.18502 -12.5995
ltibia 57.1012
lfoot -12.1541 -6.11327
ltoes -48.2848
771
root 0.134712 17.0859 24.175 -0.249143 4.74704 -5.07678
lowerback 7.15502 -1.42427 1.46396
upperback 1.85789 -1.651 5.48404
thorax -1.96856 -0.828114 5.01374
lowerneck -14.5888 -0.0198816 -2.45043
upperneck 31.7924 1.73653 -3.10446
head 13.099 0.061445 -0.514712
rclavicle 3.20043e-014 1.35174e-014
rhumerus -39.798 -25.3622 -62.0581
rradius 18.4793
rwrist -5.75174
rhand -12.3848 14.9682
rfingers 7.12502
rthumb 13.6862 -14.5618
lclavicle 3.20043e-014 1.35174e-014
lhumerus -37.1272 -1.7118 88.2568
lradius 34.85
lwrist -9.81551
lhand 3.12981 42.6133
lfingers 7.12502
lthumb 28.5846 70.4477
rfemur -10.6445 2.96872 28.7609
rtibia 18.648
rfoot -8.22337 -12.7453
rtoes 22.4845
lfemur -6.89248 -1.03149 -11.9381
ltibia 58.9005
lfoot -10.7059 -7.87066
ltoes -41.0733
772
root 0.0971631 17.0934 24.2714 -0.365631 4.67169 -5.5541
lowerback 7.21437 -1.27086 1.50234
upperback 1.81153 -1.43036 5.78851
thorax -2.0592 -0.716742 5.29844
lowerneck -14.0395 -0.0583041 -2.64158
upperneck 31.427 1.68465 -3.06394
head 12.8262 0.0355167 -0.46897
rclavicle -3.18055e-015 4.21423e-014
rhumerus -39.5517 -25.1795 -62.1131
rradius 19.0321
rwrist -6.23072
rhand -12.416 14.5858
rfingers 7.12502
rthumb 13.6561 -14.9462
lclavicle -3.18055e-015 4.21423e-014
lhumerus -36.9751 -1.74675 88.5675
lradius 35.0388
lwrist -9.05678
lhand 2.82716 43.1171
lfingers 7.12502
lthumb 28.2954 70.9998
rfemur -10.0072 3.31269 29.5456
rtibia 18.8883
rfoot -8.97882 -12.8729
rtoes 23.4825
lfemur -8.34136 -0.694234 -11.0813
ltibia 60.5317
lfoot -9.12163 -9.17728
ltoes -33.3212
773
root 0.0939201 17.0978 24.3744 -0.478152 4.60094 -5.21644
lowerback 7.39342 -1.08801 1.23475
upperback 1.65378 -1.18969 5.74913
thorax -2.33732 -0.591156 5.39709
lowerneck -13.703 -0.318559 -3.29739
upperneck 31.5554 1.36193 -2.69754
head 12.802 -0.134693 -0.262177
rclavicle 1.5704e-014 -2.62396e-014
rhumerus -39.413 -25.1888 -61.8576
rradius 19.1137
rwrist -6.86208
rhand -12.0814 14.5825
rfingers 7.12502
rthumb 13.9785 -14.9275
lclavicle 1.5704e-014 -2.62396e-014
lhumerus -37.2538 -1.60279 88.8402
lradius 35.4541
lwrist -9.00369
lhand 2.06102 42.6494
lfingers 7.12502
lthumb 27.5629 70.6513
rfemur -9.30296 3.0806 29.2673
rtibia 18.6643
rfoot -9.01802 -12.7724
rtoes 22.6599
lfemur -9.54738 -0.700393 -11.4421
ltibia 61.974
lfoot -7.60466 -9.81597
ltoes -21.6058
774
root 0.0728782 17.0999 24.4754 -0.588938 4.3925 -5.40709
lowerback 7.5645 -1.01766 1.167
upperback 1.54822 -1.08625 5.78776
thorax -2.54895 -0.535938 5.47481
lowerneck -13.6109 -0.391759 -3.30887
upperneck 31.752 1.19476 -2.50041
head 12.8615 -0.187513 -0.210345
rclavicle 7.35503e-015 -4.77083e-015
rhumerus -39.2975 -25.0027 -62.2186
rradius 19.8732
rwrist -6.94219
rhand -12.1455 14.4131
rfingers 7.12502
rthumb 13.9168 -15.1012
lclavicle 7.35503e-015 -4.77083e-015
lhumerus -37.2413 -1.11475 88.5607
lradius 35.5424
lwrist -8.76847
lhand 1.51405 42.582
lfingers 7.12502
lthumb 27.0398 70.6662
rfemur -8.24372 3.04467 29.6745
rtibia 18.439
rfoot -9.87633 -12.4035
rtoes 24.095
lfemur -10.8122 -0.445195 -11.0619
ltibia 63.268
lfoot -5.89063 -10.3168
ltoes -11.6433
775
root 0.0499674 17.0889 24.571 -0.949283 4.23413 -5.76226
lowerback 7.68134 -1.05473 1.13564
upperback 1.71017 -1.13834 5.91931
thorax -2.43795 -0.564578 5.63779
lowerneck -13.9643 -0.0946533 -2.59754
upperneck 32.1274 1.67448 -3.14647
head 13.1066 0.012835 -0.517558
rclavicle -6.26172e-015 -5.64548e-014
rhumerus -38.6807 -24.9002 -62.7257
rradius 20.1068
rwrist -7.27898
rhand -12.1391 14.541
rfingers 7.12502
rthumb 13.923 -14.9728
lclavicle -6.26172e-015 -5.64548e-014
lhumerus -36.8544 -0.955161 88.4461
lradius 35.3173
lwrist -7.90019
lhand 0.359264 42.1213
lfingers 7.12502
lthumb 25.9344 70.3721
rfemur -7.53334 3.21649 30.2368
rtibia 18.3416
rfoot -9.94856 -12.5449
rtoes 23.716
lfemur -11.7619 -0.180265 -10.4866
ltibia 64.3619
lfoot -4.92368 -10.681
ltoes -6.19589
